<svg id="_004-window-data-visual" data-name="004-window-data-visual" xmlns="http://www.w3.org/2000/svg" width="785" height="785" viewBox="0 0 785 785">
  <circle id="Ellipse_23" data-name="Ellipse 23" cx="392.5" cy="392.5" r="392.5" fill="#9f1224"/>
  <g id="_004-window-data-visual-2" data-name="004-window-data-visual" transform="translate(136 136)">
    <path id="XMLID_531_" d="M0,22V490H512V22ZM482,52V91.333H99.333V52ZM30,52H69.333V91.333H30ZM482,460H30V121.333H482Z" fill="#fff"/>
    <path id="XMLID_628_" d="M90,432.333h88.667V337.169H90Zm30-65.164h28.667v35.164H120Z" fill="#fff"/>
    <path id="XMLID_631_" d="M208.667,432.333h88.667V267H208.667Zm30-135.333h28.667V402.333H238.667Z" fill="#fff"/>
    <path id="XMLID_634_" d="M327.333,432.333H416V252.472H327.333Zm30-149.861H386V402.334H357.333Z" fill="#fff"/>
    <path id="XMLID_637_" d="M134.333,312.139A41.715,41.715,0,0,0,176,270.472c0-.44-.02-.876-.033-1.313l50.025-36.283a41.627,41.627,0,0,0,68.247-25.765l41.74-3.836a41.653,41.653,0,1,0-5.17-29.653l-43.473,4a41.631,41.631,0,0,0-75.688,28.6l-47.917,34.754a41.658,41.658,0,1,0-29.4,71.166ZM371.667,170.125A11.667,11.667,0,1,1,360,181.792,11.679,11.679,0,0,1,371.667,170.125ZM253,189.519a11.667,11.667,0,1,1-11.667,11.667A11.68,11.68,0,0,1,253,189.519ZM134.333,258.8a11.667,11.667,0,1,1-11.667,11.667A11.68,11.68,0,0,1,134.333,258.8Z" fill="#fff"/>
  </g>
</svg>
