<svg id="_006-sql-database-admin" data-name="006-sql-database-admin" xmlns="http://www.w3.org/2000/svg" width="785" height="785" viewBox="0 0 785 785">
  <circle id="Ellipse_21" data-name="Ellipse 21" cx="392.5" cy="392.5" r="392.5" fill="#9f1224"/>
  <g id="_006-sql-database-admin-2" data-name="006-sql-database-admin" transform="translate(136 157.602)">
    <path id="XMLID_712_" d="M378.21,88.25c-37.668,0-75.677,11.317-75.677,36.6V235.868c0,25.283,38.009,36.6,75.677,36.6s75.676-11.317,75.676-36.6V124.85c0-25.283-38.008-36.6-75.676-36.6Zm0,30c19.091,0,33.3,3.415,40.881,6.6-7.578,3.185-21.79,6.6-40.881,6.6s-33.3-3.415-40.882-6.6C344.907,121.665,359.118,118.25,378.21,118.25Zm0,124.218c-24.484,0-40.941-5.616-45.677-9.162V154.97c13.266,4.385,29.5,6.48,45.677,6.48s32.41-2.094,45.676-6.48v78.336C419.151,236.852,402.693,242.468,378.21,242.468Z" fill="#fff"/>
    <path id="XMLID_726_" d="M0,30.4V395.953H238.928v53.681H89.014v30H421.02v-30H268.928V395.953h241.1V30.4ZM480.033,365.954H30V326.635H240.033V346.3h30v-19.66h210ZM30,296.635V60.4H480.033V296.634H30Z" fill="#fff"/>
    <path id="XMLID_739_" d="M90.319,167.654c-3.845-.767-9.655-1.926-9.655-3.246,0-2.1,5.226-2.268,6.827-2.268,5.636,0,11.695,1.624,18.01,4.828l1.925.976,8.4-20.22-1.549-.87c-6.984-3.923-16.675-6.173-26.587-6.173-20.425,0-33.622,9.771-33.622,24.892,0,17.644,16.644,21.107,27.656,23.4,4.171.868,9.883,2.057,9.883,3.566,0,1.04-2.616,1.686-6.827,1.686a44.583,44.583,0,0,1-21.39-5.93l-1.938-1.145-8.987,20.34,1.488.915c7.311,4.491,19.048,7.28,30.632,7.28,24.816,0,33.622-13.409,33.622-24.892,0-17.575-16.78-20.923-27.884-23.139Z" fill="#fff"/>
    <path id="XMLID_745_" d="M197.045,207.614a11.608,11.608,0,0,1-7.995,3.78,6.209,6.209,0,0,1-2.392-.394,36.2,36.2,0,0,0,20.009-32.818c0-21.73-16.955-37.5-40.315-37.5s-40.314,15.772-40.314,37.5c0,17.8,11.942,32.337,29.787,36.356,12.192,12.678,20.211,16.763,32.74,16.763,8.781,0,16.152-3.23,21.315-9.342l1.094-1.294-12.4-14.584Zm-30.693-44.407c7.913,0,13.229,6.018,13.229,14.975s-5.316,14.975-13.229,14.975-13.229-6.018-13.229-14.975S158.439,163.207,166.352,163.207Z" fill="#fff"/>
    <path id="XMLID_840_" d="M245.659,142.232H218.768v71.9h57.544V192.381H245.659Z" fill="#fff"/>
  </g>
</svg>
