<svg id="_015-database-migration" data-name="015-database-migration" xmlns="http://www.w3.org/2000/svg" width="785" height="785" viewBox="0 0 785 785">
  <circle id="Ellipse_16" data-name="Ellipse 16" cx="392.5" cy="392.5" r="392.5" fill="#9f1224"/>
  <g id="_015-database-migration-2" data-name="015-database-migration" transform="translate(136 136.068)">
    <path id="XMLID_907_" d="M178.383,173.037c-19.018-6.155-44.013-9.545-70.381-9.545s-51.363,3.39-70.381,9.545C6.527,183.1,0,197.927,0,208.593V417.641c0,10.666,6.527,25.492,37.621,35.556,19.018,6.155,44.013,9.545,70.381,9.545s51.363-3.39,70.381-9.545C209.477,443.133,216,428.306,216,417.641V208.593c0-10.666-6.527-25.492-37.621-35.556ZM108,193.491c42.781,0,68.885,9.459,76.446,15.1-7.561,5.642-33.666,15.1-76.446,15.1s-68.883-9.459-76.446-15.1C39.117,202.951,65.221,193.491,108,193.491ZM30,311.229c2.363.951,4.892,1.872,7.621,2.755,19.018,6.155,44.013,9.545,70.381,9.545s51.363-3.39,70.381-9.545c2.729-.883,5.258-1.8,7.621-2.755v35.416c-4.686,5.3-31.487,16.483-78,16.483s-73.316-11.184-78-16.484Zm78-17.7c-46.515,0-73.316-11.183-78-16.483V241.394c2.363.951,4.892,1.872,7.621,2.755,19.018,6.155,44.013,9.545,70.381,9.545s51.363-3.39,70.381-9.545c2.729-.883,5.258-1.8,7.621-2.755v35.653C181.318,282.346,154.517,293.53,108,293.53Zm0,139.213c-46.515,0-73.316-11.184-78-16.483V380.827c2.363.951,4.892,1.872,7.621,2.756,19.018,6.155,44.013,9.545,70.381,9.545s51.363-3.39,70.381-9.545c2.729-.883,5.258-1.8,7.621-2.756V416.26c-4.686,5.3-31.487,16.483-78,16.483Z" fill="#fff"/>
    <path id="XMLID_916_" d="M476.054,173.037c-19.018-6.155-44.014-9.545-70.382-9.545s-51.363,3.39-70.381,9.545c-31.1,10.064-37.621,24.891-37.621,35.556V417.641c0,10.666,6.526,25.492,37.621,35.556,19.018,6.155,44.013,9.545,70.381,9.545s51.363-3.39,70.382-9.545c31.094-10.064,37.62-24.891,37.62-35.556V208.593c0-10.666-6.526-25.492-37.62-35.556ZM327.67,311.229c2.363.951,4.892,1.872,7.621,2.756,19.018,6.155,44.013,9.545,70.381,9.545s51.363-3.39,70.382-9.545c2.729-.883,5.258-1.8,7.62-2.755v35.415c-4.687,5.3-31.487,16.483-78,16.483s-73.315-11.184-78-16.483Zm78-17.7c-46.515,0-73.315-11.183-78-16.483V241.393c2.363.951,4.892,1.872,7.621,2.756,19.018,6.155,44.013,9.545,70.381,9.545s51.363-3.39,70.382-9.545c2.729-.883,5.258-1.8,7.62-2.755v35.653C478.988,282.346,452.187,293.53,405.672,293.53Zm0-100.039c42.781,0,68.886,9.459,76.446,15.1-7.562,5.642-33.665,15.1-76.446,15.1s-68.883-9.459-76.446-15.1C336.788,202.951,362.891,193.491,405.672,193.491Zm0,239.252c-46.515,0-73.315-11.184-78-16.483V380.827c2.363.951,4.892,1.872,7.621,2.756,19.018,6.155,44.013,9.545,70.381,9.545s51.363-3.39,70.382-9.545c2.729-.883,5.258-1.8,7.62-2.755v35.433C478.988,421.56,452.187,432.743,405.672,432.743Z" fill="#fff"/>
    <path id="XMLID_928_" d="M312.365,110.016h67.948v27h30v-57H312.8a43.568,43.568,0,0,0-41.034-29.084H242.329a43.568,43.568,0,0,0-41.034,29.084H103.363v57h30v-27h68.365a43.564,43.564,0,0,0,40.6,27.916h29.435a43.565,43.565,0,0,0,40.6-27.916Zm-40.6-2.085H242.328a13.5,13.5,0,1,1,0-27h29.435a13.5,13.5,0,0,1,0,27Z" fill="#fff"/>
  </g>
</svg>
