<svg id="_019-server-database-optimization" data-name="019-server-database-optimization" xmlns="http://www.w3.org/2000/svg" width="785" height="785" viewBox="0 0 785 785">
  <circle id="Ellipse_17" data-name="Ellipse 17" cx="392.5" cy="392.5" r="392.5" fill="#9f1224"/>
  <g id="_019-server-database-optimization-2" data-name="019-server-database-optimization" transform="translate(137.93 138)">
    <path id="XMLID_924_" d="M309.141,187.381h.336a15,15,0,0,0,0-30h-.336a15,15,0,0,0,0,30Z" fill="#fff"/>
    <path id="XMLID_993_" d="M480.071,315.571h-90V68.566c0-15.1-10.211-36.4-58.854-52.148C298.505,5.831,255.3,0,209.571,0S120.637,5.831,87.926,16.418C39.282,32.162,29.071,53.467,29.071,68.566v372.01c0,15.1,10.211,36.4,58.854,52.148,32.711,10.587,75.912,16.418,121.646,16.418h270.5ZM97.164,44.96C126.971,35.313,166.891,30,209.571,30s82.6,5.313,112.407,14.96c31.1,10.064,38.093,20.681,38.093,23.606s-7,13.542-38.093,23.606c-29.807,9.647-69.727,14.961-112.407,14.961s-82.6-5.313-112.407-14.961c-31.1-10.064-38.093-20.68-38.093-23.606S66.069,55.024,97.164,44.96ZM59.071,108.523a160.447,160.447,0,0,0,28.854,12.192c32.711,10.588,75.913,16.419,121.646,16.419s88.934-5.831,121.646-16.419a160.415,160.415,0,0,0,28.854-12.192v84.318c0,2.926-7,13.542-38.093,23.606-29.807,9.647-69.727,14.961-112.407,14.961s-82.6-5.313-112.407-14.961c-31.1-10.064-38.093-20.681-38.093-23.606Zm0,124.274a160.448,160.448,0,0,0,28.854,12.192c32.711,10.588,75.913,16.419,121.646,16.419s88.934-5.831,121.646-16.419A160.415,160.415,0,0,0,360.071,232.8v82.774H320.06a15,15,0,0,0-10.583-25.628h-.336a15,15,0,0,0-10.583,25.628H270.072v36.272c-17.025,2.483-34.449,3.416-60.5,3.416-42.68,0-82.6-5.313-112.407-14.961-31.1-10.064-38.093-20.681-38.093-23.606V232.8ZM97.164,464.183c-31.1-10.064-38.093-20.681-38.093-23.606V356.65a160.446,160.446,0,0,0,28.854,12.192c32.711,10.588,75.913,16.419,121.646,16.419,22.681,0,41.1-.589,60.5-3.142v97.024h-60.5c-42.68,0-82.6-5.314-112.407-14.96ZM450.071,478.9h-150V345.571h150Z" fill="#fff"/>
    <path id="XMLID_998_" d="M360.071,452.738h30v-25.5h25.5v-30h-25.5v-25.5h-30v25.5h-25.5v30h25.5Z" fill="#fff"/>
  </g>
</svg>
