<svg id="_029-settings" data-name="029-settings" xmlns="http://www.w3.org/2000/svg" width="785" height="785" viewBox="0 0 785 785">
  <circle id="Ellipse_25" data-name="Ellipse 25" cx="392.5" cy="392.5" r="392.5" fill="#9f1224"/>
  <g id="_029-settings-2" data-name="029-settings" transform="translate(136 147.04)">
    <path id="XMLID_1109_" d="M79.033,142.241h61.628v30H79.033Z" fill="#fff"/>
    <path id="XMLID_1168_" d="M79.033,198.385h61.628v30H79.033Z" fill="#fff"/>
    <path id="XMLID_1176_" d="M79.033,254.528h61.628v30H79.033Z" fill="#fff"/>
    <path id="XMLID_1177_" d="M79.033,310.672h61.628v30H79.033Z" fill="#fff"/>
    <path id="XMLID_1180_" d="M383.113,332.068A50.084,50.084,0,1,0,433.2,382.152a50.141,50.141,0,0,0-50.084-50.084Zm0,70.168A20.084,20.084,0,1,1,403.2,382.152a20.107,20.107,0,0,1-20.084,20.084Z" fill="#fff"/>
    <path id="XMLID_1183_" d="M512.63,414.864V349.441l-26.313-5.721q-1.392-3.735-3.054-7.364L497.826,313.7l-38.262-38.262V.96H0V421.311H280.2c.853,2.24,1.769,4.457,2.768,6.639L268.4,450.6l46.262,46.262L337.317,482.3q3.625,1.659,7.363,3.053L350.4,511.67h65.425l5.72-26.314q3.735-1.392,7.364-3.053l22.655,14.563L497.827,450.6l-14.563-22.655q1.66-3.627,3.054-7.364ZM429.564,30.96V62.751H91.791V30.96ZM30,30.96H61.791V62.751H30Zm0,61.791H429.564V281.582l-.654.421q-3.627-1.66-7.364-3.054l-5.72-26.313H350.4l-5.721,26.313q-3.734,1.392-7.363,3.054L314.662,267.44,268.4,313.7l14.563,22.655q-1.66,3.627-3.054,7.364L253.6,349.441V391.31H30ZM482.63,390.687l-19.919,4.33-2.429,8.708a79.625,79.625,0,0,1-7.352,17.728l-4.445,7.876,11.031,17.159-12.068,12.068-17.159-11.03-7.876,4.444a79.68,79.68,0,0,1-17.728,7.352l-8.708,2.428-4.331,19.921H374.58l-4.331-19.921-8.708-2.428a79.654,79.654,0,0,1-17.728-7.352l-7.876-4.444-17.16,11.03-12.068-12.068,11.031-17.159-4.445-7.876a79.588,79.588,0,0,1-7.351-17.727l-2.428-8.709-19.921-4.33V373.62l19.921-4.33,2.428-8.709a79.585,79.585,0,0,1,7.351-17.727l4.445-7.876-11.031-17.159,12.068-12.068,17.16,11.03,7.876-4.444a79.631,79.631,0,0,1,17.726-7.351l8.709-2.428,4.331-19.922h17.066l4.331,19.922,8.709,2.428a79.57,79.57,0,0,1,17.727,7.351l7.876,4.444,17.159-11.03,12.068,12.068-11.031,17.159,4.445,7.876a79.673,79.673,0,0,1,7.352,17.728l2.429,8.708,19.919,4.33v17.067Z" fill="#fff"/>
    <path id="XMLID_1187_" d="M193.667,142.241H383.114v30H193.667Z" fill="#fff"/>
    <path id="XMLID_1188_" d="M193.667,198.385h146v30h-146Z" fill="#fff"/>
    <path id="XMLID_1189_" d="M193.667,254.528h88.667v30H193.667Z" fill="#fff"/>
    <path id="XMLID_1190_" d="M193.667,310.672H238v30H193.667Z" fill="#fff"/>
  </g>
</svg>
