<svg id="_034-user-admin-app" data-name="034-user-admin-app" xmlns="http://www.w3.org/2000/svg" width="785" height="785" viewBox="0 0 785 785">
  <circle id="Ellipse_19" data-name="Ellipse 19" cx="392.5" cy="392.5" r="392.5" fill="#9f1224"/>
  <g id="_034-user-admin-app-2" data-name="034-user-admin-app" transform="translate(136.602 137)">
    <path id="XMLID_1351_" d="M511.568,132.774H494.079V0H302.871V120.951a146.555,146.555,0,0,0-93.776,0V0H17.888V132.774H.4V220.58H114.936a146.554,146.554,0,0,0-1.794,70.807H17.888V424.161H.4v87.806H226.585V424.161H209.1V398.209a146.555,146.555,0,0,0,93.776,0v25.952H285.383v87.806H511.57V424.161H494.081V291.387H398.826a146.554,146.554,0,0,0-1.794-70.807H511.571V132.774ZM332.871,30H464.079V132.774H332.871ZM47.888,30H179.1V132.774H47.888ZM30.4,190.58V162.774H146.35a146.94,146.94,0,0,0-19.377,27.806ZM196.585,481.967H30.4V454.161H196.585ZM179.1,424.161H47.888V321.387h75.478a147.318,147.318,0,0,0,55.73,62.644ZM139.651,259.58A116.332,116.332,0,1,1,255.983,375.912,116.464,116.464,0,0,1,139.651,259.58ZM481.568,481.967H315.382V454.161H481.569v27.806Zm-17.489-160.58V424.161H332.871V384.03a147.311,147.311,0,0,0,55.73-62.644h75.478ZM481.568,190.58H384.994a147.017,147.017,0,0,0-19.377-27.806H481.569V190.58Z" fill="#fff"/>
    <path id="XMLID_1362_" d="M294.571,236.131a48.926,48.926,0,1,0-75.287,2.281,64.248,64.248,0,0,0-25.126,50.954v58.618H322.824V289.366a64.314,64.314,0,0,0-28.253-53.235Zm-38.588-48.953A18.927,18.927,0,1,1,237.056,206.1a18.948,18.948,0,0,1,18.927-18.927Zm36.841,130.8H224.158V289.365a34.333,34.333,0,1,1,68.666,0Z" fill="#fff"/>
  </g>
</svg>
