<svg id="_048-binary-data-anal" data-name="048-binary-data-anal" xmlns="http://www.w3.org/2000/svg" width="785" height="785" viewBox="0 0 785 785">
  <circle id="Ellipse_22" data-name="Ellipse 22" cx="392.5" cy="392.5" r="392.5" fill="#9f1224"/>
  <g id="_048-binary-data-anal-2" data-name="048-binary-data-anal" transform="translate(136 146)">
    <path id="XMLID_389_" d="M0,22V490H512V22ZM482,52V91.333H99.333V52ZM30,52H69.333V91.333H30ZM482,460H30V121.333H482Z" fill="#fff"/>
    <path id="XMLID_418_" d="M61,154H91v90H61Z" fill="#fff"/>
    <path id="XMLID_422_" d="M161.333,273.039h30v90h-30Z" fill="#fff"/>
    <path id="XMLID_423_" d="M310.359,154h30v90h-30Z" fill="#fff"/>
    <path id="XMLID_424_" d="M412.873,273.039h30v90h-30Z" fill="#fff"/>
    <path id="XMLID_427_" d="M151.667,243a37.709,37.709,0,0,0,37.667-37.667V190.666a37.667,37.667,0,1,0-75.334,0v14.667A37.709,37.709,0,0,0,151.667,243ZM144,190.667a7.667,7.667,0,0,1,15.334,0v14.667a7.667,7.667,0,1,1-15.334,0Z" fill="#fff"/>
    <path id="XMLID_431_" d="M136.333,325.372V310.705a37.667,37.667,0,1,0-75.333,0v14.667a37.667,37.667,0,1,0,75.333,0Zm-30,0a7.667,7.667,0,1,1-15.333,0V310.705a7.667,7.667,0,0,1,15.334,0v14.667Z" fill="#fff"/>
    <path id="XMLID_436_" d="M249.846,243a37.709,37.709,0,0,0,37.667-37.667V190.666a37.667,37.667,0,0,0-75.334,0v14.667A37.71,37.71,0,0,0,249.846,243Zm-7.666-52.333a7.667,7.667,0,0,1,15.334,0v14.667a7.667,7.667,0,0,1-15.334,0Z" fill="#fff"/>
    <path id="XMLID_440_" d="M400.206,243a37.709,37.709,0,0,0,37.667-37.667V190.666a37.667,37.667,0,1,0-75.334,0v14.667A37.709,37.709,0,0,0,400.206,243Zm-7.667-52.333a7.667,7.667,0,1,1,15.334,0v14.667a7.667,7.667,0,0,1-15.334,0Z" fill="#fff"/>
    <path id="XMLID_570_" d="M252.846,273.039a37.709,37.709,0,0,0-37.667,37.667v14.667a37.667,37.667,0,0,0,75.334,0V310.706a37.709,37.709,0,0,0-37.667-37.667Zm7.667,52.333a7.667,7.667,0,0,1-15.334,0V310.705a7.667,7.667,0,0,1,15.334,0Z" fill="#fff"/>
    <path id="XMLID_738_" d="M313.359,310.7v14.667a37.667,37.667,0,0,0,75.334,0V310.7a37.667,37.667,0,0,0-75.334,0Zm30,0a7.667,7.667,0,0,1,15.334,0v14.667a7.667,7.667,0,0,1-15.334,0Z" fill="#fff"/>
    <path id="XMLID_816_" d="M78.835,395.5H78.5a15,15,0,0,0,0,30h.336a15,15,0,0,0,0-30Z" fill="#fff"/>
    <path id="XMLID_830_" d="M131.835,395.5H131.5a15,15,0,0,0,0,30h.336a15,15,0,0,0,0-30Z" fill="#fff"/>
    <path id="XMLID_839_" d="M184.5,395.5a15,15,0,1,0,0,30h.336a15,15,0,1,0,0-30Z" fill="#fff"/>
  </g>
</svg>
