<svg xmlns="http://www.w3.org/2000/svg" xmlns:xlink="http://www.w3.org/1999/xlink" width="200.737" height="23.531" viewBox="0 0 200.737 23.531">
  <defs>
    <linearGradient id="linear-gradient" x1="0.872" y1="1.133" x2="0.049" y2="-0.267" gradientUnits="objectBoundingBox">
      <stop offset="0" stop-color="#6a0911"/>
      <stop offset="1" stop-color="#9f0c25"/>
    </linearGradient>
    <linearGradient id="linear-gradient-2" x1="0.67" y1="1.026" x2="0.41" y2="-0.373" xlink:href="#linear-gradient"/>
  </defs>
  <g id="FortisureIT-logo-new-blue" transform="translate(-9.481 -17.539)">
    <g id="Group_16" data-name="Group 16">
      <path id="Path_11" data-name="Path 11" d="M24.965,31.351c0-5.775,4.479-9.719,10.283-9.719S45.53,25.576,45.53,31.351,41.051,41.07,35.248,41.07,24.965,37.126,24.965,31.351Zm14.79,0a4.512,4.512,0,1,0-9.015,0,4.512,4.512,0,1,0,9.015,0Z" fill="#252e5e"/>
      <path id="Path_12" data-name="Path 12" d="M59.585,40.731l-2.592-5.915H54.937v5.915H49.246V21.941H59.275c4.395,0,6.761,2.93,6.761,6.451a6.055,6.055,0,0,1-3.381,5.691l3.409,6.648Zm.676-12.366c0-1.015-.9-1.465-1.859-1.465H54.937v2.957H58.4C59.36,29.857,60.261,29.407,60.261,28.365Z" fill="#252e5e"/>
      <path id="Path_13" data-name="Path 13" d="M73.782,40.731V26.9H68.739V21.941H84.487V26.9H79.472V40.731Z" fill="#252e5e"/>
      <path id="Path_14" data-name="Path 14" d="M88.2,40.731V21.941h5.69v18.79Z" fill="#252e5e"/>
      <path id="Path_15" data-name="Path 15" d="M97.161,38.083l2.958-4.225a8.758,8.758,0,0,0,6.057,2.423c1.07,0,2.085-.283,2.085-1.014,0-1.8-10.48.027-10.48-7.382,0-3.183,2.648-6.225,7.8-6.225a12.4,12.4,0,0,1,7.973,2.62l-3.043,4.028a9.5,9.5,0,0,0-5.522-1.859c-1.126,0-1.436.366-1.436.845,0,1.775,10.451.253,10.451,7.24,0,4.141-3.071,6.536-8.113,6.536A12.381,12.381,0,0,1,97.161,38.083Z" fill="#252e5e"/>
      <path id="Path_16" data-name="Path 16" d="M117.555,33.013V21.941h5.775V32.816c0,1.8,1.183,3.239,3.521,3.239a3.148,3.148,0,0,0,3.493-3.239V21.941h5.776V32.984c0,4.677-2.93,8.086-9.269,8.086S117.555,37.661,117.555,33.013Z" fill="#252e5e"/>
      <path id="Path_17" data-name="Path 17" d="M151.189,40.731,148.6,34.816h-2.057v5.915h-5.69V21.941h10.028c4.4,0,6.761,2.93,6.761,6.451a6.057,6.057,0,0,1-3.381,5.691l3.409,6.648Zm.676-12.366c0-1.015-.9-1.465-1.86-1.465h-3.464v2.957h3.464C150.963,29.857,151.865,29.407,151.865,28.365Z" fill="#252e5e"/>
      <path id="Path_18" data-name="Path 18" d="M161.639,40.731V21.941h14.254V26.9h-8.564v1.859H175.7v4.958h-8.367v2.057h8.564v4.957Z" fill="#252e5e"/>
    </g>
    <path id="Path_19" data-name="Path 19" d="M26.806,17.675H9.482v5.444H23.319Z" fill="#252e5e"/>
    <path id="Path_20" data-name="Path 20" d="M21.22,26.779H9.482v14h5.444V32.223h6.33Z" fill="#252e5e"/>
    <g id="Group_17" data-name="Group 17">
      <path id="Path_21" data-name="Path 21" d="M182.085,41.024V17.539h6.057V41.024Z" fill="url(#linear-gradient)"/>
      <path id="Path_22" data-name="Path 22" d="M197.613,41.024v-18.2h-6.584V17.539h19.19v5.282h-6.55v18.2Z" fill="url(#linear-gradient-2)"/>
    </g>
  </g>
</svg>
