<svg id="icon-2" xmlns="http://www.w3.org/2000/svg" width="279" height="287" viewBox="0 0 279 287">
  <ellipse id="Ellipse_15" data-name="Ellipse 15" cx="139.5" cy="143.5" rx="139.5" ry="143.5" fill="#3b3a6d"/>
  <path id="Path_56" data-name="Path 56" d="M430.9,409.2a13.358,13.358,0,0,0-10.6-5.2H404.4v-5.7a12.611,12.611,0,0,0-12.6-12.6h-51l-4.4-14a5.042,5.042,0,0,0-4.8-3.5H281.7a5.042,5.042,0,0,0-4.8,3.5l-4.4,14h-7.3a16.474,16.474,0,0,0-16.4,16.4v94.8a13.439,13.439,0,0,0,13.4,14.2H399.7a13.478,13.478,0,0,0,13-10.1l20.6-80.2A13.066,13.066,0,0,0,430.9,409.2ZM265.1,395.7h11a5.042,5.042,0,0,0,4.8-3.5l4.4-14h42.6l4.4,14a5.042,5.042,0,0,0,4.8,3.5h54.7a2.647,2.647,0,0,1,2.6,2.6V404H282.8a13.478,13.478,0,0,0-13,10.1l-11,42.9V402.1A6.235,6.235,0,0,1,265.1,395.7Zm158.5,22.6L403,498.5a3.513,3.513,0,0,1-3.3,2.6H262.2a3.292,3.292,0,0,1-2.7-1.3,3.335,3.335,0,0,1-.6-3l20.6-80.2a3.513,3.513,0,0,1,3.3-2.6H420.3a3.292,3.292,0,0,1,2.7,1.3A3.335,3.335,0,0,1,423.6,418.3Z" transform="translate(-192.5 -296.2)" fill="#fbf8fc"/>
</svg>
