<svg id="icon-1" xmlns="http://www.w3.org/2000/svg" width="279" height="287" viewBox="0 0 279 287">
  <ellipse id="Ellipse_14" data-name="Ellipse 14" cx="139.5" cy="143.5" rx="139.5" ry="143.5" fill="#3b3a6d"/>
  <g id="Group_36" data-name="Group 36" transform="translate(-767.5 -1098.2)">
    <path id="Path_80" data-name="Path 80" d="M998.747,1173.4H815.871a4.131,4.131,0,0,0-4.171,4.171v116.883a4.131,4.131,0,0,0,4.171,4.171h68.161v26.864H850.494a4.171,4.171,0,1,0,0,8.343h113.63a4.171,4.171,0,1,0,0-8.343H927.582v-26.864h71.164a4.131,4.131,0,0,0,4.171-4.171V1177.571A4.183,4.183,0,0,0,998.747,1173.4Zm-79.507,152.09H892.375v-26.864h26.864Zm75.336-35.123H820.043v-108.54H994.575Z" fill="#fbf8fc"/>
    <path id="Path_81" data-name="Path 81" d="M853.226,1275.39a8.4,8.4,0,0,0,7.759-11.68l8.51-11.513a7.2,7.2,0,0,0,2.336.334,8,8,0,0,0,3.5-.751l9.928,9.427v.25a8.426,8.426,0,0,0,16.853,0,9.234,9.234,0,0,0-.167-1.585l25.613-31.786a6.747,6.747,0,0,0,1.335.083,7.353,7.353,0,0,0,1.418-.167l12.347,14.85a6.31,6.31,0,0,0-.083,1.251,8.426,8.426,0,0,0,16.853,0v-.5l10.762-11.346a8.418,8.418,0,1,0-5.173-7.759,4.754,4.754,0,0,0,.083,1.085l-10.429,10.929a8.706,8.706,0,0,0-3.587-.834,7.151,7.151,0,0,0-3,.584l-11.263-13.515a8.666,8.666,0,0,0,.584-2.92,8.426,8.426,0,0,0-16.853,0,9.643,9.643,0,0,0,.584,3.087l-24.695,30.618a9.4,9.4,0,0,0-2.67-.417,8.756,8.756,0,0,0-3.921.918l-9.594-9.177v-.751a8.426,8.426,0,0,0-16.853,0,7.112,7.112,0,0,0,.25,1.919l-9.344,12.6a4.76,4.76,0,0,0-1.084-.083,8.426,8.426,0,1,0,0,16.852Z" transform="translate(-5.485 -6.297)" fill="#fbf8fc"/>
  </g>
</svg>
