<svg id="icon-3" xmlns="http://www.w3.org/2000/svg" width="279" height="287" viewBox="0 0 279 287">
  <ellipse id="Ellipse_13" data-name="Ellipse 13" cx="139.5" cy="143.5" rx="139.5" ry="143.5" fill="#3b3a6d"/>
  <g id="Group_30" data-name="Group 30" transform="translate(-2541.5 -711.2)">
    <path id="Path_65" data-name="Path 65" d="M2741.5,877.6V780.2c0-7.8-8.3-13.9-24.7-18.2-13.9-3.7-32.3-5.7-51.9-5.7s-38,2-51.9,5.7c-16.4,4.3-24.7,10.5-24.7,18.2v136c0,7.8,8.3,13.9,24.7,18.2,13.9,3.7,32.3,5.7,51.9,5.7a230.935,230.935,0,0,0,40.6-3.3,37.857,37.857,0,1,0,36-59.2ZM2706,892.7a222.3,222.3,0,0,1-41,3.5c-18.7,0-36.2-1.9-49.3-5.4-14.2-3.8-17.2-7.8-17.2-8.6V861a65.96,65.96,0,0,0,14.7,5.5c13.9,3.7,32.3,5.7,51.9,5.7s38-2,51.9-5.7a65.96,65.96,0,0,0,14.7-5.5v16.6A38.046,38.046,0,0,0,2706,892.7Zm25.5-78.6c0,.8-3.1,4.8-17.2,8.6-13.1,3.5-30.6,5.4-49.3,5.4s-36.2-1.9-49.3-5.4c-14.2-3.8-17.2-7.8-17.2-8.6V792.8a65.96,65.96,0,0,0,14.7,5.5c13.9,3.7,32.3,5.7,51.9,5.7s38-2,51.9-5.7a65.96,65.96,0,0,0,14.7-5.5v21.3Zm-118.4,18.3c13.9,3.7,32.3,5.7,51.9,5.7s38-2,51.9-5.7a65.96,65.96,0,0,0,14.7-5.5v21.3c0,.8-3.1,4.8-17.2,8.6-13.1,3.5-30.6,5.4-49.3,5.4s-36.2-1.9-49.3-5.4c-14.2-3.8-17.2-7.8-17.2-8.6V826.9A60.445,60.445,0,0,0,2613.1,832.4Zm2.5-60.9c13.1-3.5,30.6-5.4,49.3-5.4s36.2,1.9,49.3,5.4c14.2,3.8,17.2,7.8,17.2,8.6s-3.1,4.8-17.2,8.6c-13.1,3.5-30.6,5.4-49.3,5.4s-36.2-1.9-49.3-5.4c-14.2-3.8-17.2-7.8-17.2-8.6S2601.5,775.3,2615.6,771.5Zm49.3,158.7c-18.7,0-36.2-1.9-49.3-5.4-14.2-3.8-17.2-7.8-17.2-8.6V895a65.96,65.96,0,0,0,14.7,5.5c13.9,3.7,32.3,5.7,51.9,5.7a245.25,245.25,0,0,0,35.4-2.4,38.849,38.849,0,0,0-1.8,11.4,39.481,39.481,0,0,0,2.1,12.5A247.312,247.312,0,0,1,2664.9,930.2Zm71.6,12.9a27.9,27.9,0,1,1,27.9-27.9A27.911,27.911,0,0,1,2736.5,943.1Z" fill="#fbf8fc"/>
    <path id="Path_66" data-name="Path 66" d="M2750.8,910.1h-9.4v-9.4a5,5,0,0,0-10,0v9.4H2722a5,5,0,0,0,0,10h9.4v9.4a5,5,0,0,0,10,0v-9.4h9.4a5,5,0,0,0,0-10Z" fill="#fbf8fc"/>
  </g>
</svg>
