<svg id="XMLID_611_predictive-model" xmlns="http://www.w3.org/2000/svg" width="785" height="785" viewBox="0 0 785 785">
  <circle id="Ellipse_24" data-name="Ellipse 24" cx="392.5" cy="392.5" r="392.5" fill="#9f1224"/>
  <path id="XMLID_611_predictive-model-2" data-name="XMLID_611_predictive-model" d="M254,9.331,0,84.734v325.44l254,88.495,254-88.495V84.734ZM478,241.909l-82.92,23.573V139.36L478,115.787ZM30,115.787l89.5,25.444V267.353L30,241.909Zm346.771-2.41-71.434-20.2,61.807-18.963,72.1,21.4Zm-54.977,15.629L254,148.279l-66.575-18.927L252.459,109.4ZM134.338,114.26,68.757,95.617,134.6,76.07l64.637,18.279Zm15.162,35.5L239,175.2V301.326l-89.5-25.444ZM239,332.514V461.675l-89.5-31.182V307.07Zm30,0L365.08,305.2v123L269,461.675Zm0-31.188V175.2l96.08-27.315V274.01ZM315.161,58.781,252.114,78.125,188.385,60.1,254,40.625ZM30,273.1l89.5,25.444v121.5L30,388.858ZM395.08,417.748V296.671L478,273.1V388.858Z" transform="translate(139 138.669)" fill="#fff"/>
</svg>
